<mxfile host="app.diagrams.net" agent="Mozilla/5.0 (Windows NT 10.0; Win64; x64) AppleWebKit/537.36 (KHTML, like Gecko) Chrome/130.0.0.0 Safari/537.36 OPR/115.0.0.0" version="26.0.8">
  <diagram name="PÃ¡gina-1" id="vcmKhjc-wTPpcvENqZ4V">
    <mxGraphModel dx="1390" dy="761" grid="1" gridSize="10" guides="1" tooltips="1" connect="1" arrows="1" fold="1" page="1" pageScale="1" pageWidth="827" pageHeight="1169" math="0" shadow="0">
      <root>
        <mxCell id="0" />
        <mxCell id="1" parent="0" />
        <mxCell id="okOieGQISE6EaHq1-r0n-4" style="edgeStyle=orthogonalEdgeStyle;rounded=0;orthogonalLoop=1;jettySize=auto;html=1;entryX=0.5;entryY=0;entryDx=0;entryDy=0;" edge="1" parent="1" source="okOieGQISE6EaHq1-r0n-1" target="okOieGQISE6EaHq1-r0n-3">
          <mxGeometry relative="1" as="geometry" />
        </mxCell>
        <mxCell id="okOieGQISE6EaHq1-r0n-1" value="INICIO" style="strokeWidth=2;html=1;shape=mxgraph.flowchart.start_1;whiteSpace=wrap;" vertex="1" parent="1">
          <mxGeometry x="364" y="20" width="100" height="60" as="geometry" />
        </mxCell>
        <mxCell id="okOieGQISE6EaHq1-r0n-2" value="FIM" style="strokeWidth=2;html=1;shape=mxgraph.flowchart.start_1;whiteSpace=wrap;" vertex="1" parent="1">
          <mxGeometry x="364" y="1060" width="100" height="60" as="geometry" />
        </mxCell>
        <mxCell id="okOieGQISE6EaHq1-r0n-6" style="edgeStyle=orthogonalEdgeStyle;rounded=0;orthogonalLoop=1;jettySize=auto;html=1;" edge="1" parent="1" source="okOieGQISE6EaHq1-r0n-3" target="okOieGQISE6EaHq1-r0n-5">
          <mxGeometry relative="1" as="geometry" />
        </mxCell>
        <mxCell id="okOieGQISE6EaHq1-r0n-3" value="peso = 0&lt;div&gt;excesso = 0&amp;nbsp;&lt;/div&gt;&lt;div&gt;multa = 0&lt;/div&gt;" style="shape=parallelogram;html=1;strokeWidth=2;perimeter=parallelogramPerimeter;whiteSpace=wrap;rounded=1;arcSize=12;size=0.23;" vertex="1" parent="1">
          <mxGeometry x="364" y="130" width="100" height="60" as="geometry" />
        </mxCell>
        <mxCell id="okOieGQISE6EaHq1-r0n-5" value="enquanto(numero_peixes &amp;gt; 0)" style="rounded=1;whiteSpace=wrap;html=1;absoluteArcSize=1;arcSize=14;strokeWidth=2;" vertex="1" parent="1">
          <mxGeometry x="314" y="270" width="200" height="40" as="geometry" />
        </mxCell>
        <mxCell id="okOieGQISE6EaHq1-r0n-13" style="edgeStyle=orthogonalEdgeStyle;rounded=0;orthogonalLoop=1;jettySize=auto;html=1;entryX=0.5;entryY=0;entryDx=0;entryDy=0;" edge="1" parent="1" source="okOieGQISE6EaHq1-r0n-7" target="okOieGQISE6EaHq1-r0n-12">
          <mxGeometry relative="1" as="geometry" />
        </mxCell>
        <mxCell id="okOieGQISE6EaHq1-r0n-7" value="peso_peixe" style="html=1;strokeWidth=2;shape=manualInput;whiteSpace=wrap;rounded=1;size=26;arcSize=11;" vertex="1" parent="1">
          <mxGeometry x="364" y="360" width="100" height="60" as="geometry" />
        </mxCell>
        <mxCell id="okOieGQISE6EaHq1-r0n-11" style="edgeStyle=orthogonalEdgeStyle;rounded=0;orthogonalLoop=1;jettySize=auto;html=1;entryX=0.47;entryY=0.233;entryDx=0;entryDy=0;entryPerimeter=0;" edge="1" parent="1" source="okOieGQISE6EaHq1-r0n-5" target="okOieGQISE6EaHq1-r0n-7">
          <mxGeometry relative="1" as="geometry" />
        </mxCell>
        <mxCell id="okOieGQISE6EaHq1-r0n-12" value="peso = peso + peso_peixe" style="rounded=1;whiteSpace=wrap;html=1;absoluteArcSize=1;arcSize=14;strokeWidth=2;" vertex="1" parent="1">
          <mxGeometry x="329" y="470" width="170" height="40" as="geometry" />
        </mxCell>
        <mxCell id="okOieGQISE6EaHq1-r0n-17" style="edgeStyle=orthogonalEdgeStyle;rounded=0;orthogonalLoop=1;jettySize=auto;html=1;entryX=0;entryY=0.5;entryDx=0;entryDy=0;" edge="1" parent="1" source="okOieGQISE6EaHq1-r0n-14" target="okOieGQISE6EaHq1-r0n-16">
          <mxGeometry relative="1" as="geometry" />
        </mxCell>
        <mxCell id="okOieGQISE6EaHq1-r0n-22" value="V" style="edgeLabel;html=1;align=center;verticalAlign=middle;resizable=0;points=[];" vertex="1" connectable="0" parent="okOieGQISE6EaHq1-r0n-17">
          <mxGeometry x="0.0909" y="2" relative="1" as="geometry">
            <mxPoint y="1" as="offset" />
          </mxGeometry>
        </mxCell>
        <mxCell id="okOieGQISE6EaHq1-r0n-14" value="peso &amp;gt; 50" style="strokeWidth=2;html=1;shape=mxgraph.flowchart.decision;whiteSpace=wrap;" vertex="1" parent="1">
          <mxGeometry x="364" y="550" width="100" height="85" as="geometry" />
        </mxCell>
        <mxCell id="okOieGQISE6EaHq1-r0n-15" style="edgeStyle=orthogonalEdgeStyle;rounded=0;orthogonalLoop=1;jettySize=auto;html=1;entryX=0.5;entryY=0;entryDx=0;entryDy=0;entryPerimeter=0;" edge="1" parent="1" source="okOieGQISE6EaHq1-r0n-12" target="okOieGQISE6EaHq1-r0n-14">
          <mxGeometry relative="1" as="geometry" />
        </mxCell>
        <mxCell id="okOieGQISE6EaHq1-r0n-16" value="excesso = excesso + (peso - 50)" style="rounded=1;whiteSpace=wrap;html=1;absoluteArcSize=1;arcSize=14;strokeWidth=2;" vertex="1" parent="1">
          <mxGeometry x="530" y="572.5" width="180" height="40" as="geometry" />
        </mxCell>
        <mxCell id="okOieGQISE6EaHq1-r0n-24" style="edgeStyle=orthogonalEdgeStyle;rounded=0;orthogonalLoop=1;jettySize=auto;html=1;entryX=0;entryY=0.5;entryDx=0;entryDy=0;" edge="1" parent="1" source="okOieGQISE6EaHq1-r0n-18" target="okOieGQISE6EaHq1-r0n-5">
          <mxGeometry relative="1" as="geometry">
            <Array as="points">
              <mxPoint x="414" y="810" />
              <mxPoint x="120" y="810" />
              <mxPoint x="120" y="290" />
            </Array>
          </mxGeometry>
        </mxCell>
        <mxCell id="okOieGQISE6EaHq1-r0n-26" style="edgeStyle=orthogonalEdgeStyle;rounded=0;orthogonalLoop=1;jettySize=auto;html=1;entryX=0.5;entryY=0;entryDx=0;entryDy=0;" edge="1" parent="1" source="okOieGQISE6EaHq1-r0n-18" target="okOieGQISE6EaHq1-r0n-23">
          <mxGeometry relative="1" as="geometry" />
        </mxCell>
        <mxCell id="okOieGQISE6EaHq1-r0n-18" value="" style="strokeWidth=2;html=1;shape=mxgraph.flowchart.start_2;whiteSpace=wrap;" vertex="1" parent="1">
          <mxGeometry x="399" y="700" width="30" height="30" as="geometry" />
        </mxCell>
        <mxCell id="okOieGQISE6EaHq1-r0n-19" style="edgeStyle=orthogonalEdgeStyle;rounded=0;orthogonalLoop=1;jettySize=auto;html=1;entryX=1;entryY=0.5;entryDx=0;entryDy=0;entryPerimeter=0;" edge="1" parent="1" source="okOieGQISE6EaHq1-r0n-16" target="okOieGQISE6EaHq1-r0n-18">
          <mxGeometry relative="1" as="geometry">
            <Array as="points">
              <mxPoint x="620" y="715" />
            </Array>
          </mxGeometry>
        </mxCell>
        <mxCell id="okOieGQISE6EaHq1-r0n-20" style="edgeStyle=orthogonalEdgeStyle;rounded=0;orthogonalLoop=1;jettySize=auto;html=1;entryX=0;entryY=0.5;entryDx=0;entryDy=0;entryPerimeter=0;" edge="1" parent="1" source="okOieGQISE6EaHq1-r0n-14" target="okOieGQISE6EaHq1-r0n-18">
          <mxGeometry relative="1" as="geometry">
            <Array as="points">
              <mxPoint x="240" y="593" />
              <mxPoint x="240" y="715" />
            </Array>
          </mxGeometry>
        </mxCell>
        <mxCell id="okOieGQISE6EaHq1-r0n-21" value="F" style="edgeLabel;html=1;align=center;verticalAlign=middle;resizable=0;points=[];" vertex="1" connectable="0" parent="okOieGQISE6EaHq1-r0n-20">
          <mxGeometry x="-0.8027" y="3" relative="1" as="geometry">
            <mxPoint as="offset" />
          </mxGeometry>
        </mxCell>
        <mxCell id="okOieGQISE6EaHq1-r0n-23" value="multa = 4 * (excesso)" style="rounded=1;whiteSpace=wrap;html=1;absoluteArcSize=1;arcSize=14;strokeWidth=2;" vertex="1" parent="1">
          <mxGeometry x="334" y="870" width="160" height="40" as="geometry" />
        </mxCell>
        <mxCell id="okOieGQISE6EaHq1-r0n-27" value="excesso&lt;div&gt;multa&lt;/div&gt;" style="strokeWidth=2;html=1;shape=mxgraph.flowchart.display;whiteSpace=wrap;" vertex="1" parent="1">
          <mxGeometry x="364" y="960" width="100" height="60" as="geometry" />
        </mxCell>
        <mxCell id="okOieGQISE6EaHq1-r0n-29" style="edgeStyle=orthogonalEdgeStyle;rounded=0;orthogonalLoop=1;jettySize=auto;html=1;entryX=0.5;entryY=0;entryDx=0;entryDy=0;entryPerimeter=0;" edge="1" parent="1" source="okOieGQISE6EaHq1-r0n-23" target="okOieGQISE6EaHq1-r0n-27">
          <mxGeometry relative="1" as="geometry" />
        </mxCell>
        <mxCell id="okOieGQISE6EaHq1-r0n-30" style="edgeStyle=orthogonalEdgeStyle;rounded=0;orthogonalLoop=1;jettySize=auto;html=1;entryX=0.5;entryY=0;entryDx=0;entryDy=0;entryPerimeter=0;" edge="1" parent="1" source="okOieGQISE6EaHq1-r0n-27" target="okOieGQISE6EaHq1-r0n-2">
          <mxGeometry relative="1" as="geometry" />
        </mxCell>
      </root>
    </mxGraphModel>
  </diagram>
</mxfile>
